<svg width="287" height="104" viewBox="0 0 287 104" fill="none" xmlns="http://www.w3.org/2000/svg">
<g filter="url(#filter0_d_26_302)">
<path d="M22.2106 40.437C22.2106 35.0331 23.085 31.9333 28.1692 29.3913C33.6756 26.638 37.2305 31.4728 38.0089 36.1428C38.3225 38.0247 46.2 37.9929 47.2431 36.7181C49.3906 34.0933 49.79 30.4508 53.1166 29.7546C58.1336 28.7045 61.4122 31.9733 61.4122 36.7181C61.4122 37.7077 62.3433 47.2595 63.8343 46.1944C64.818 45.4918 64.4905 45.4679 66.0212 44.7721C67.2339 44.2209 68.2684 43.8026 69.5867 43.8026C71.7843 43.8026 74.5149 44.651 73.9162 47.3449C73.7002 48.3169 70.7948 49.6197 69.8592 49.8276C66.93 50.4785 66.968 51.9132 67.8307 53.8543C68.6217 55.6339 69.5867 59.0263 69.5867 60.9691C69.5867 63.7961 69.4892 65.5806 68.9936 68.318C68.3332 69.9157 68.9936 68.7597 67.1772 71.3607C65.3608 73.9618 63.2066 74.2508 61.3971 74.2508C60.241 74.2508 55.3223 75.4108 54.3276 75.4108H47.2431H40.9759C38.9874 75.4108 34.9024 75.4761 33.0739 74.7447C31.0834 73.9485 28.6835 74.001 26.8068 72.9584C25.8428 72.4229 25.5603 72.9584 24.0819 72.141C23.1676 71.4095 22.2885 70.8014 21.2057 70.385C16.3469 68.5162 15.6349 64.7206 15.6349 60.1517C15.6349 54.4696 17.7421 53.0792 21.3268 49.4945C23.6669 47.1544 22.1812 49.0214 19.6919 47.8899C17.7366 47.0011 14 46.526 14 43.8026C14 39.2413 19.5071 38.6347 22.2106 40.437Z" fill="#7F9F80"/>
<path d="M54.3276 75.4108C55.3223 75.4108 60.241 74.2508 61.3971 74.2508C63.2066 74.2508 65.3608 73.9618 67.1772 71.3607C68.9936 68.7597 68.3332 69.9157 68.9936 68.318C69.4892 65.5806 69.5867 63.7961 69.5867 60.9691C69.5867 59.0263 68.6217 55.6339 67.8307 53.8543C66.968 51.9132 66.93 50.4785 69.8592 49.8276C70.7948 49.6197 73.7002 48.3169 73.9162 47.3449C74.5149 44.651 71.7843 43.8026 69.5867 43.8026C68.2684 43.8026 67.2339 44.2209 66.0212 44.7721C64.4905 45.4679 64.818 45.4918 63.8343 46.1944C62.3433 47.2595 61.4122 37.7077 61.4122 36.7181C61.4122 31.9733 58.1336 28.7045 53.1166 29.7546C49.79 30.4508 49.3906 34.0933 47.2431 36.7181C46.2 37.9929 38.3225 38.0247 38.0089 36.1428C37.2305 31.4728 33.6756 26.638 28.1692 29.3913C23.085 31.9333 22.2106 35.0331 22.2106 40.437C19.5071 38.6347 14 39.2413 14 43.8026C14 46.526 17.7366 47.0011 19.6919 47.8899C22.1812 49.0214 23.6669 47.1544 21.3268 49.4945C17.7421 53.0792 15.6349 54.4696 15.6349 60.1517C15.6349 64.7206 16.3469 68.5162 21.2057 70.385C22.2885 70.8014 23.1676 71.4095 24.0819 72.141C25.5603 72.9584 25.8428 72.4229 26.8068 72.9584C28.6835 74.001 31.0834 73.9485 33.0739 74.7447C34.9024 75.4761 38.9874 75.4108 40.9759 75.4108M54.3276 75.4108C51.9661 75.4108 49.6046 75.4108 47.2431 75.4108M54.3276 75.4108H47.2431M47.2431 75.4108C45.154 75.4108 43.065 75.4108 40.9759 75.4108M47.2431 75.4108H40.9759" stroke="black" stroke-width="3" stroke-linecap="round"/>
<path d="M37.7907 43.6161C37.0528 44.0217 42.5089 46.4569 47.0551 44.706" stroke="black" stroke-width="3" stroke-linecap="round"/>
<path d="M24.4961 70.7827C22.7529 67.5444 25.6013 61.5025 30.7633 57.2515C34.8756 53.8649 41.6339 52.2863 46.8701 52.2863C51.7618 52.2863 60.464 58.3276 60.464 63.7306C60.464 64.8147 60.464 68.1816 60.1915 69.1803C59.7549 69.9156 59.253 71.239 59.253 71.239C59.253 71.239 57.4152 73.7143 56.8648 74.5398C37.2818 76.5525 26.2393 74.0209 24.4961 70.7827Z" fill="#EEEEEE" stroke="black" stroke-width="3" stroke-linecap="round"/>
<path d="M32.0103 36.391C32.0103 37.8275 30.9751 38.992 29.6982 38.992C28.4213 38.992 27.3862 37.8275 27.3862 36.391C27.3862 34.9545 28.4213 33.7899 29.6982 33.7899C32.0103 33.7899 32.0103 34.9545 32.0103 36.391Z" fill="black"/>
<path d="M56.8648 36.391C56.8648 37.8275 55.8297 38.992 54.5528 38.992C53.2759 38.992 52.2407 37.8275 52.2407 36.391C52.2407 34.9545 53.2759 33.7899 54.5528 33.7899C56.8648 33.7899 56.8648 34.9545 56.8648 36.391Z" fill="black"/>
</g>
<g filter="url(#filter1_i_26_302)">
<path d="M99.6 35.304C103.152 35.304 106.256 36.008 108.912 37.416C111.568 38.824 113.616 40.808 115.056 43.368C116.528 45.896 117.264 48.824 117.264 52.152C117.264 55.448 116.528 58.376 115.056 60.936C113.616 63.496 111.552 65.48 108.864 66.888C106.208 68.296 103.12 69 99.6 69H86.976V35.304H99.6ZM99.072 61.896C102.176 61.896 104.592 61.048 106.32 59.352C108.048 57.656 108.912 55.256 108.912 52.152C108.912 49.048 108.048 46.632 106.32 44.904C104.592 43.176 102.176 42.312 99.072 42.312H95.184V61.896H99.072ZM122.619 55.56C122.619 52.808 123.131 50.392 124.155 48.312C125.211 46.232 126.635 44.632 128.427 43.512C130.219 42.392 132.219 41.832 134.427 41.832C136.315 41.832 137.963 42.216 139.371 42.984C140.811 43.752 141.915 44.76 142.683 46.008V42.216H150.891V69H142.683V65.208C141.883 66.456 140.763 67.464 139.323 68.232C137.915 69 136.267 69.384 134.379 69.384C132.203 69.384 130.219 68.824 128.427 67.704C126.635 66.552 125.211 64.936 124.155 62.856C123.131 60.744 122.619 58.312 122.619 55.56ZM142.683 55.608C142.683 53.56 142.107 51.944 140.955 50.76C139.835 49.576 138.459 48.984 136.827 48.984C135.195 48.984 133.803 49.576 132.651 50.76C131.531 51.912 130.971 53.512 130.971 55.56C130.971 57.608 131.531 59.24 132.651 60.456C133.803 61.64 135.195 62.232 136.827 62.232C138.459 62.232 139.835 61.64 140.955 60.456C142.107 59.272 142.683 57.656 142.683 55.608ZM167.437 46.008C168.205 44.76 169.309 43.752 170.749 42.984C172.189 42.216 173.837 41.832 175.693 41.832C177.901 41.832 179.901 42.392 181.693 43.512C183.485 44.632 184.893 46.232 185.917 48.312C186.973 50.392 187.501 52.808 187.501 55.56C187.501 58.312 186.973 60.744 185.917 62.856C184.893 64.936 183.485 66.552 181.693 67.704C179.901 68.824 177.901 69.384 175.693 69.384C173.805 69.384 172.157 69.016 170.749 68.28C169.341 67.512 168.237 66.504 167.437 65.256V69H159.229V33.48H167.437V46.008ZM179.149 55.56C179.149 53.512 178.573 51.912 177.421 50.76C176.301 49.576 174.909 48.984 173.245 48.984C171.613 48.984 170.221 49.576 169.069 50.76C167.949 51.944 167.389 53.56 167.389 55.608C167.389 57.656 167.949 59.272 169.069 60.456C170.221 61.64 171.613 62.232 173.245 62.232C174.877 62.232 176.269 61.64 177.421 60.456C178.573 59.24 179.149 57.608 179.149 55.56ZM198.335 39.432C196.895 39.432 195.711 39.016 194.783 38.184C193.887 37.32 193.439 36.264 193.439 35.016C193.439 33.736 193.887 32.68 194.783 31.848C195.711 30.984 196.895 30.552 198.335 30.552C199.743 30.552 200.895 30.984 201.791 31.848C202.719 32.68 203.183 33.736 203.183 35.016C203.183 36.264 202.719 37.32 201.791 38.184C200.895 39.016 199.743 39.432 198.335 39.432ZM202.415 42.216V69H194.207V42.216H202.415ZM225.691 62.04V69H221.515C218.539 69 216.219 68.28 214.555 66.84C212.891 65.368 212.059 62.984 212.059 59.688V49.032H208.795V42.216H212.059V35.688H220.267V42.216H225.643V49.032H220.267V59.784C220.267 60.584 220.459 61.16 220.843 61.512C221.227 61.864 221.867 62.04 222.763 62.04H225.691ZM243.56 69.384C241.224 69.384 239.144 68.984 237.32 68.184C235.496 67.384 234.056 66.296 233 64.92C231.944 63.512 231.352 61.944 231.224 60.216H239.336C239.432 61.144 239.864 61.896 240.632 62.472C241.4 63.048 242.344 63.336 243.464 63.336C244.488 63.336 245.272 63.144 245.816 62.76C246.392 62.344 246.68 61.816 246.68 61.176C246.68 60.408 246.28 59.848 245.48 59.496C244.68 59.112 243.384 58.696 241.592 58.248C239.672 57.8 238.072 57.336 236.792 56.856C235.512 56.344 234.408 55.56 233.48 54.504C232.552 53.416 232.088 51.96 232.088 50.136C232.088 48.6 232.504 47.208 233.336 45.96C234.2 44.68 235.448 43.672 237.08 42.936C238.744 42.2 240.712 41.832 242.984 41.832C246.344 41.832 248.984 42.664 250.904 44.328C252.856 45.992 253.976 48.2 254.264 50.952H246.68C246.552 50.024 246.136 49.288 245.432 48.744C244.76 48.2 243.864 47.928 242.744 47.928C241.784 47.928 241.048 48.12 240.536 48.504C240.024 48.856 239.768 49.352 239.768 49.992C239.768 50.76 240.168 51.336 240.968 51.72C241.8 52.104 243.08 52.488 244.808 52.872C246.792 53.384 248.408 53.896 249.656 54.408C250.904 54.888 251.992 55.688 252.92 56.808C253.88 57.896 254.376 59.368 254.408 61.224C254.408 62.792 253.96 64.2 253.064 65.448C252.2 66.664 250.936 67.624 249.272 68.328C247.64 69.032 245.736 69.384 243.56 69.384ZM265.669 69.384C264.229 69.384 263.045 68.968 262.117 68.136C261.221 67.272 260.773 66.216 260.773 64.968C260.773 63.688 261.221 62.616 262.117 61.752C263.045 60.888 264.229 60.456 265.669 60.456C267.077 60.456 268.229 60.888 269.125 61.752C270.053 62.616 270.517 63.688 270.517 64.968C270.517 66.216 270.053 67.272 269.125 68.136C268.229 68.968 267.077 69.384 265.669 69.384Z" fill="#7F9F80"/>
</g>
<defs>
<filter id="filter0_d_26_302" x="8.5" y="27.0876" width="70.9999" height="57.8247" filterUnits="userSpaceOnUse" color-interpolation-filters="sRGB">
<feFlood flood-opacity="0" result="BackgroundImageFix"/>
<feColorMatrix in="SourceAlpha" type="matrix" values="0 0 0 0 0 0 0 0 0 0 0 0 0 0 0 0 0 0 127 0" result="hardAlpha"/>
<feOffset dy="4"/>
<feGaussianBlur stdDeviation="2"/>
<feComposite in2="hardAlpha" operator="out"/>
<feColorMatrix type="matrix" values="0 0 0 0 0 0 0 0 0 0 0 0 0 0 0 0 0 0 0.25 0"/>
<feBlend mode="normal" in2="BackgroundImageFix" result="effect1_dropShadow_26_302"/>
<feBlend mode="normal" in="SourceGraphic" in2="effect1_dropShadow_26_302" result="shape"/>
</filter>
<filter id="filter1_i_26_302" x="86.976" y="30.552" width="183.541" height="42.832" filterUnits="userSpaceOnUse" color-interpolation-filters="sRGB">
<feFlood flood-opacity="0" result="BackgroundImageFix"/>
<feBlend mode="normal" in="SourceGraphic" in2="BackgroundImageFix" result="shape"/>
<feColorMatrix in="SourceAlpha" type="matrix" values="0 0 0 0 0 0 0 0 0 0 0 0 0 0 0 0 0 0 127 0" result="hardAlpha"/>
<feOffset dy="4"/>
<feGaussianBlur stdDeviation="2"/>
<feComposite in2="hardAlpha" operator="arithmetic" k2="-1" k3="1"/>
<feColorMatrix type="matrix" values="0 0 0 0 0 0 0 0 0 0 0 0 0 0 0 0 0 0 0.25 0"/>
<feBlend mode="normal" in2="shape" result="effect1_innerShadow_26_302"/>
</filter>
</defs>
</svg>
